<?xml version="1.0" encoding="UTF-8"?>
<svg width="150px" height="91px" viewBox="0 0 150 91" version="1.1" xmlns="http://www.w3.org/2000/svg" xmlns:xlink="http://www.w3.org/1999/xlink">
    <!-- Generator: Sketch 41.2 (35397) - http://www.bohemiancoding.com/sketch -->
    <title>Banana</title>
    <desc>Created with Sketch.</desc>
    <defs></defs>
    <g id="Page-1" stroke="none" stroke-width="1" fill="none" fill-rule="evenodd">
        <g id="Banana" transform="translate(1.000000, 2.000000)">
            <path d="M2.914,0.336 L1.515,0.754 C1.515,0.754 -1.974,23.333 19.674,40.596 C41.322,57.859 85.53,71.112 121.817,40.415 C137.45,25.253 137.008,11.481 137.008,11.481 L145.904,3.964 C145.904,3.964 146.54,2.689 145.31,1.305 C144.079,-0.08 143.065,-0.201 134.502,9.46 C125.205,16.705 108.571,31.892 67.061,30.876 C24.271,26.12 8.922,6.561 2.914,0.336" id="Fill-160" fill="#FAC822"></path>
            <path d="M135.113,16.166 C120.009,33.552 99.264,41.014 81.98,43.875 C64.693,46.736 34.145,39.199 19.77,28.61 C10.101,21.487 3.896,13.215 0.867,8.56 C2.036,16.715 6.072,28.694 18.796,38.841 C40.444,56.104 84.653,69.357 120.94,38.66 C129.979,29.892 133.63,21.609 135.113,16.166" id="Fill-161" fill="#F8C330"></path>
            <path d="M5.485,42.158 L4.206,42.863 C4.206,42.863 5.581,65.669 30.395,77.953 C55.21,90.236 101.223,93.821 130.181,56.132 C142.247,38.002 138.896,24.637 138.896,24.637 L145.997,15.405 C145.997,15.405 146.349,14.024 144.853,12.932 C143.356,11.84 142.34,11.936 136.019,23.192 C128.468,32.242 115.43,50.609 74.647,58.412 C31.82,62.831 12.676,46.968 5.485,42.158" id="Fill-162" fill="#FAC822"></path>
            <path d="M139.266,29.39 C128.189,49.582 109.497,61.271 93.211,67.729 C76.923,74.188 45.472,73.295 29.18,65.992 C18.22,61.08 10.404,54.311 6.457,50.403 C9.327,58.125 15.81,68.977 30.396,76.197 C55.21,88.481 101.223,92.065 130.181,54.377 C137.158,43.893 138.97,35.025 139.266,29.39" id="Fill-163" fill="#F8C330"></path>
            <path d="M2.914,0.336 L1.515,0.754 C1.515,0.754 -1.974,23.333 19.674,40.596 C41.322,57.859 85.53,71.112 121.817,40.415 C137.45,25.253 137.008,11.481 137.008,11.481 L145.904,3.964 C145.904,3.964 146.54,2.689 145.31,1.305 C144.079,-0.08 143.065,-0.201 134.502,9.46 C125.205,16.705 108.571,31.892 67.061,30.876 C24.271,26.12 8.922,6.561 2.914,0.336 Z M5.485,42.158 L4.206,42.863 C4.206,42.863 5.581,65.669 30.395,77.953 C55.21,90.236 101.223,93.821 130.181,56.132 C142.247,38.002 138.896,24.637 138.896,24.637 L145.997,15.405 C145.997,15.405 146.349,14.024 144.853,12.932 C143.356,11.84 142.34,11.936 136.019,23.192 C128.468,32.242 115.43,50.609 74.647,58.412 C31.82,62.831 12.676,46.968 5.485,42.158 Z" id="Stroke-164" stroke="#FFDB1A" stroke-width="4"></path>
        </g>
    </g>
</svg>