<?xml version="1.0" encoding="UTF-8"?>
<svg width="89px" height="112px" viewBox="0 0 89 112" version="1.1" xmlns="http://www.w3.org/2000/svg" xmlns:xlink="http://www.w3.org/1999/xlink">
    <!-- Generator: Sketch 41.2 (35397) - http://www.bohemiancoding.com/sketch -->
    <title>Lemon</title>
    <desc>Created with Sketch.</desc>
    <defs></defs>
    <g id="Page-1" stroke="none" stroke-width="1" fill="none" fill-rule="evenodd">
        <g id="Lemon" transform="translate(2.000000, 2.000000)">
            <path d="M80.602,69.538 C90.355,47.362 80.49,23.259 69.493,12.701 C70.009,11.102 72.075,3.581 66.187,0.992 C60.206,-1.639 55.705,5.087 54.911,6.376 C39.862,5.343 16.432,13.521 5.56,36.532 C-5.422,59.775 3.112,83.859 15.97,94.917 C15.437,96.583 13.437,104.021 19.286,106.594 C25.028,109.119 29.403,103.024 30.447,101.392 C47.169,103.363 70.571,92.344 80.602,69.538" id="Fill-221" fill="#FAC822"></path>
            <path d="M80.602,69.538 C90.355,47.362 80.49,23.259 69.493,12.701 C70.009,11.102 72.075,3.581 66.187,0.992 C60.206,-1.639 55.705,5.087 54.911,6.376 C39.862,5.343 16.432,13.521 5.56,36.532 C-5.422,59.775 3.112,83.859 15.97,94.917 C15.437,96.583 13.437,104.021 19.286,106.594 C25.028,109.119 29.403,103.024 30.447,101.392 C47.169,103.363 70.571,92.344 80.602,69.538 Z" id="Stroke-222" stroke="#FFDB1A" stroke-width="4"></path>
            <path d="M38.404,19.855 C30.929,22.375 23.626,25.86 18.997,32.521 C14.466,39.039 12.078,47.158 12.021,55.068 C11.971,62.222 13.131,69.217 16.171,75.73" id="Fill-223" fill="#FAC822"></path>
            <path d="M38.404,19.855 C30.929,22.375 23.626,25.86 18.997,32.521 C14.466,39.039 12.078,47.158 12.021,55.068 C11.971,62.222 13.131,69.217 16.171,75.73" id="Stroke-224" stroke="#FFDB1A" stroke-width="4" stroke-linecap="round" stroke-linejoin="round"></path>
        </g>
    </g>
</svg>