<?xml version="1.0" encoding="UTF-8"?>
<svg width="94px" height="127px" viewBox="0 0 94 127" version="1.1" xmlns="http://www.w3.org/2000/svg" xmlns:xlink="http://www.w3.org/1999/xlink">
    <!-- Generator: Sketch 41.2 (35397) - http://www.bohemiancoding.com/sketch -->
    <title>Orange</title>
    <desc>Created with Sketch.</desc>
    <defs></defs>
    <g id="Page-1" stroke="none" stroke-width="1" fill="none" fill-rule="evenodd">
        <g id="Orange" transform="translate(2.000000, 2.000000)">
            <path d="M2.189,2.243 C2.189,2.243 8.611,34.691 42.411,23.199 C44.101,0.553 17.399,-1.813 2.189,2.243" id="Fill-225" fill="#00A548"></path>
            <path d="M2.189,2.243 C2.189,2.243 8.611,34.691 42.411,23.199 C44.101,0.553 17.399,-1.813 2.189,2.243 Z" id="Stroke-226" stroke="#008643" stroke-width="4" stroke-linecap="round" stroke-linejoin="round"></path>
            <path d="M48.608,33.226 C48.608,33.226 35.989,26.466 53.565,8.89" id="Stroke-227" stroke="#A5876B" stroke-width="4" stroke-linecap="round" stroke-linejoin="round"></path>
            <path d="M0.026,75.053 C0.026,101.597 19.72,122.147 43.267,122.147 C66.814,122.147 89.077,102.453 89.077,76.766 C89.077,51.078 67.135,33.311 44.552,33.311 C21.968,33.311 0.026,54.503 0.026,75.053" id="Fill-228" fill="#E56F41"></path>
            <path d="M0.026,75.053 C0.026,101.597 19.72,122.147 43.267,122.147 C66.814,122.147 89.077,102.453 89.077,76.766 C89.077,51.078 67.135,33.311 44.552,33.311 C21.968,33.311 0.026,54.503 0.026,75.053 Z" id="Stroke-229" stroke="#DA4E2A" stroke-width="4"></path>
            <path d="M68.551,57.005 C68.551,59.11 66.844,60.816 64.739,60.816 C62.634,60.816 60.927,59.11 60.927,57.005 C60.927,54.9 62.634,53.193 64.739,53.193 C66.844,53.193 68.551,54.9 68.551,57.005" id="Fill-230" fill="#DA4E2A"></path>
            <path d="M77.445,73.381 C77.445,75.486 75.738,77.192 73.633,77.192 C71.528,77.192 69.821,75.486 69.821,73.381 C69.821,71.276 71.528,69.569 73.633,69.569 C75.738,69.569 77.445,71.276 77.445,73.381" id="Fill-231" fill="#DA4E2A"></path>
            <path d="M64.806,84.378 C64.806,86.787 62.853,88.74 60.444,88.74 C58.034,88.74 56.081,86.787 56.081,84.378 C56.081,81.969 58.034,80.016 60.444,80.016 C62.853,80.016 64.806,81.969 64.806,84.378" id="Fill-232" fill="#DA4E2A"></path>
            <path d="M57.055,69.71 C57.055,70.88 56.107,71.828 54.938,71.828 C53.768,71.828 52.82,70.88 52.82,69.71 C52.82,68.541 53.768,67.593 54.938,67.593 C56.107,67.593 57.055,68.541 57.055,69.71" id="Fill-233" fill="#DA4E2A"></path>
        </g>
    </g>
</svg>