<?xml version="1.0" encoding="UTF-8"?>
<svg width="73px" height="144px" viewBox="0 0 73 144" version="1.1" xmlns="http://www.w3.org/2000/svg" xmlns:xlink="http://www.w3.org/1999/xlink">
    <!-- Generator: Sketch 41.2 (35397) - http://www.bohemiancoding.com/sketch -->
    <title>Ananas</title>
    <desc>Created with Sketch.</desc>
    <defs>
        <path d="M70.074,43.895 C70.01,12.826 50,1.293 36,0.701 L36,0.671 C36,0.671 35.709,0.682 35.5,0.687 C35.291,0.683 35,0.673 35,0.673 L35,0.703 C20,1.356 0.867,12.969 0.931,44.038 C0.995,74.935 22,84.066 35,84.616 L35,84.647 C35,84.647 35.29,84.638 35.5,84.632 C35.71,84.637 36,84.645 36,84.645 L36,84.614 C49,84.009 70.138,74.792 70.074,43.895 Z" id="path-1"></path>
    </defs>
    <g id="Page-1" stroke="none" stroke-width="1" fill="none" fill-rule="evenodd">
        <g id="Ananas" transform="translate(1.000000, 1.000000)">
            <path d="M1.19,39.152 C1.19,39.152 20.682,50.443 23.908,64.675 C36.984,64.938 49.477,64.621 49.477,64.621 C49.477,64.621 47.708,51.84 69.19,42.207 C68.307,36.978 53.562,37.517 50.735,40.356 C51.594,34.253 48.428,31.317 60.706,14.838 C51.444,14.749 47.201,18.026 41.005,24.795 C38.048,17.609 36.067,8.243 37.795,0.939 C37.795,0.939 25.821,6.702 27.462,27.329 C21.353,23.855 16.152,20.488 5.26,22.363 C18.015,25.496 20.989,41.181 20.989,41.181 C20.989,41.181 12.878,35.532 1.19,39.152" id="Fill-110" fill="#7EB641"></path>
            <path d="M1.19,39.152 C1.19,39.152 20.682,50.443 23.908,64.675 C36.984,64.938 49.477,64.621 49.477,64.621 C49.477,64.621 47.708,51.84 69.19,42.207 C68.307,36.978 53.562,37.517 50.735,40.356 C51.594,34.253 48.428,31.317 60.706,14.838 C51.444,14.749 47.201,18.026 41.005,24.795 C38.048,17.609 36.067,8.243 37.795,0.939 C37.795,0.939 25.821,6.702 27.462,27.329 C21.353,23.855 16.152,20.488 5.26,22.363 C18.015,25.496 20.989,41.181 20.989,41.181 C20.989,41.181 12.878,35.532 1.19,39.152 Z" id="Stroke-111" stroke="#6A893C" stroke-width="3.366" stroke-linecap="round" stroke-linejoin="round"></path>
            <path d="M69.574,99.895 C69.51,68.826 50.5,57.293 35.5,56.701 L35.5,56.671 C35.5,56.671 35.709,56.682 35.5,56.687 C35.291,56.683 35.5,56.673 35.5,56.673 L35.5,56.703 C19.5,57.356 1.367,68.969 1.431,100.038 C1.495,130.935 21.5,140.066 35.5,140.616 L35.5,140.647 C35.5,140.647 35.29,140.638 35.5,140.632 C35.71,140.637 35.5,140.645 35.5,140.645 L35.5,140.614 C48.5,140.011 69.638,130.792 69.574,99.895" id="Fill-112" fill="#FAC822"></path>
            <path d="M69.574,99.895 C69.51,68.826 50.5,57.293 35.5,56.701 L35.5,56.671 C35.5,56.671 35.709,56.682 35.5,56.687 C35.291,56.683 35.5,56.673 35.5,56.673 L35.5,56.703 C19.5,57.356 1.367,68.969 1.431,100.038 C1.495,130.935 21.5,140.066 35.5,140.616 L35.5,140.647 C35.5,140.647 35.29,140.638 35.5,140.632 C35.71,140.637 35.5,140.645 35.5,140.645 L35.5,140.614 C48.5,140.011 69.638,130.792 69.574,99.895 Z" id="Stroke-113" stroke="#FFDB1A" stroke-width="3"></path>
            <g id="Group-123" transform="translate(0.000000, 56.000000)">
                <mask id="mask-2" fill="white">
                    <use xlink:href="#path-1"></use>
                </mask>
                <g id="Clip-115"></g>
                <polyline id="Fill-114" fill="#FFDE18" mask="url(#mask-2)" points="-16.145 55.047 -14.292 56.892 45.988 -3.639 44.135 -5.485 -16.145 55.047"></polyline>
                <polyline id="Fill-116" fill="#FFDE18" mask="url(#mask-2)" points="2.18 64.597 4.033 66.443 64.314 5.911 62.461 4.066 2.18 64.597"></polyline>
                <polyline id="Fill-117" fill="#FFDE18" mask="url(#mask-2)" points="13.545 80.264 15.398 82.11 75.678 21.578 73.825 19.733 13.545 80.264"></polyline>
                <polyline id="Fill-118" fill="#FFDE18" mask="url(#mask-2)" points="21.43 99.426 23.283 101.271 83.563 40.74 81.71 38.894 21.43 99.426"></polyline>
                <polyline id="Fill-119" fill="#FFDE18" mask="url(#mask-2)" points="85.218 48.84 87.063 46.987 26.532 -13.293 24.687 -11.44 85.218 48.84"></polyline>
                <polyline id="Fill-120" fill="#FFDE18" mask="url(#mask-2)" points="72.171 62.814 74.017 60.961 13.485 0.681 11.64 2.534 72.171 62.814"></polyline>
                <polyline id="Fill-121" fill="#FFDE18" mask="url(#mask-2)" points="65.239 82.878 67.085 81.025 6.553 20.745 4.708 22.598 65.239 82.878"></polyline>
                <polyline id="Fill-122" fill="#FFDE18" mask="url(#mask-2)" points="52.195 97.724 54.04 95.871 -6.491 35.591 -8.337 37.444 52.195 97.724"></polyline>
            </g>
        </g>
    </g>
</svg>