<?xml version="1.0" encoding="UTF-8"?>
<svg width="89px" height="115px" viewBox="0 0 89 115" version="1.1" xmlns="http://www.w3.org/2000/svg" xmlns:xlink="http://www.w3.org/1999/xlink">
    <!-- Generator: Sketch 41.2 (35397) - http://www.bohemiancoding.com/sketch -->
    <title>Apple</title>
    <desc>Created with Sketch.</desc>
    <defs></defs>
    <g id="Page-1" stroke="none" stroke-width="1" fill="none" fill-rule="evenodd">
        <g id="Apple" transform="translate(2.000000, 2.000000)">
            <path d="M42.547,38.49 C42.547,38.49 40.742,16.992 22.198,16.007" id="Stroke-196" stroke="#A5876B" stroke-width="3.644" stroke-linecap="round" stroke-linejoin="round"></path>
            <path d="M71.316,0.652 C71.316,0.652 75.973,33.083 44.649,31.434 C34.488,13.02 71.316,0.652 71.316,0.652" id="Fill-197" fill="#00A548"></path>
            <path d="M71.316,0.652 C71.316,0.652 75.973,33.083 44.649,31.434 C34.488,13.02 71.316,0.652 71.316,0.652 Z" id="Stroke-198" stroke="#008643" stroke-width="3.644" stroke-linecap="round" stroke-linejoin="round"></path>
            <path d="M54.66,34.044 C45.283,34.044 47.409,38.873 42.403,39.637 C37.397,38.873 39.522,34.044 30.146,34.044 C24.106,34.044 0.326,36.686 0.326,63.863 C0.326,91.041 20.332,110.291 28.447,110.291 C36.332,110.291 36.023,107.208 42.403,106.762 C48.782,107.208 48.474,110.291 56.358,110.291 C64.474,110.291 84.479,91.041 84.479,63.863 C84.479,36.686 60.699,34.044 54.66,34.044" id="Fill-199" fill="#E87D4B"></path>
            <path d="M54.66,34.044 C45.283,34.044 47.409,38.873 42.403,39.637 C37.397,38.873 39.522,34.044 30.146,34.044 C24.106,34.044 0.326,36.686 0.326,63.863 C0.326,91.041 20.332,110.291 28.447,110.291 C36.332,110.291 36.023,107.208 42.403,106.762 C48.782,107.208 48.474,110.291 56.358,110.291 C64.474,110.291 84.479,91.041 84.479,63.863 C84.479,36.686 60.699,34.044 54.66,34.044 Z" id="Stroke-200" stroke="#E26140" stroke-width="3.644"></path>
            <path d="M11.944,48.054 C5.998,63.05 10.182,84.721 21.983,95.992" id="Fill-201" fill="#E87D4B"></path>
            <path d="M11.944,48.054 C5.998,63.05 10.182,84.721 21.983,95.992" id="Stroke-202" stroke="#E26140" stroke-width="3.644" stroke-linecap="round" stroke-linejoin="round"></path>
        </g>
    </g>
</svg>