<?xml version="1.0" encoding="UTF-8"?>
<svg width="99px" height="99px" viewBox="0 0 99 99" version="1.1" xmlns="http://www.w3.org/2000/svg" xmlns:xlink="http://www.w3.org/1999/xlink">
    <!-- Generator: Sketch 41.2 (35397) - http://www.bohemiancoding.com/sketch -->
    <title>Papaya</title>
    <desc>Created with Sketch.</desc>
    <defs></defs>
    <g id="Page-1" stroke="none" stroke-width="1" fill="none" fill-rule="evenodd">
        <g id="Papaya" transform="translate(2.000000, 2.000000)">
            <path d="M94.885,47.543 C94.885,73.685 73.693,94.877 47.552,94.877 C21.41,94.877 0.218,73.685 0.218,47.543 C0.218,21.402 21.41,0.21 47.552,0.21 C73.693,0.21 94.885,21.402 94.885,47.543" id="Fill-234" fill="#6CB744"></path>
            <path d="M94.885,47.543 C94.885,73.685 73.693,94.877 47.552,94.877 C21.41,94.877 0.218,73.685 0.218,47.543 C0.218,21.402 21.41,0.21 47.552,0.21 C73.693,0.21 94.885,21.402 94.885,47.543 Z" id="Stroke-235" stroke="#5E7938" stroke-width="4"></path>
            <path d="M46.186,34.434 C46.937,31.885 48.166,31.885 48.917,34.434 C49.668,36.983 52.005,37.743 54.111,36.122 C56.217,34.501 57.211,35.223 56.32,37.727 C55.43,40.231 56.874,42.219 59.531,42.145 C62.187,42.072 62.567,43.241 60.374,44.742 C58.182,46.244 58.182,48.702 60.374,50.204 C62.567,51.706 62.187,52.875 59.531,52.801 C56.874,52.728 55.43,54.716 56.32,57.219 C57.211,59.723 56.217,60.445 54.111,58.825 C52.005,57.204 49.668,57.963 48.917,60.512 C48.166,63.061 46.937,63.061 46.186,60.512 C45.435,57.963 43.098,57.204 40.992,58.825 C38.886,60.445 37.892,59.723 38.783,57.219 C39.674,54.716 38.229,52.728 35.573,52.801 C32.916,52.875 32.536,51.706 34.729,50.204 C36.921,48.702 36.921,46.244 34.729,44.742 C32.536,43.241 32.916,42.072 35.573,42.145 C38.229,42.219 39.674,40.231 38.783,37.727 C37.892,35.223 38.886,34.501 40.992,36.122 C43.098,37.743 45.435,36.983 46.186,34.434" id="Fill-236" fill="#F9D2A7"></path>
            <path d="M47.452,27.65 C47.452,27.65 53.483,19.547 47.888,19.257 C42.292,18.966 47.452,27.65 47.452,27.65" id="Fill-237" fill="#5E7938"></path>
            <path d="M47.888,68.257 C47.888,68.257 41.857,76.36 47.452,76.65 C53.048,76.941 47.888,68.257 47.888,68.257" id="Fill-238" fill="#5E7938"></path>
            <path d="M32.787,33.341 C32.787,33.341 31.322,23.346 27.16,27.098 C22.997,30.849 32.787,33.341 32.787,33.341" id="Fill-239" fill="#5E7938"></path>
            <path d="M61.808,61.746 C61.808,61.746 63.273,71.74 67.435,67.989 C71.597,64.238 61.808,61.746 61.808,61.746" id="Fill-240" fill="#5E7938"></path>
            <path d="M61.5,33.033 C61.5,33.033 71.494,31.568 67.743,27.406 C63.992,23.244 61.5,33.033 61.5,33.033" id="Fill-241" fill="#5E7938"></path>
            <path d="M33.095,62.054 C33.095,62.054 23.1,63.519 26.852,67.681 C30.603,71.843 33.095,62.054 33.095,62.054" id="Fill-242" fill="#5E7938"></path>
            <path d="M67.973,47.326 C67.973,47.326 76.076,53.357 76.367,47.761 C76.657,42.166 67.973,47.326 67.973,47.326" id="Fill-243" fill="#5E7938"></path>
            <path d="M27.367,47.761 C27.367,47.761 19.264,41.73 18.973,47.326 C18.683,52.921 27.367,47.761 27.367,47.761" id="Fill-244" fill="#5E7938"></path>
            <path d="M36.778,18.198 C36.778,18.198 38.393,12.839 35.423,13.743 C32.453,14.646 36.778,18.198 36.778,18.198" id="Fill-245" fill="#5E7938"></path>
            <path d="M58.562,77.685 C58.562,77.685 56.947,83.044 59.917,82.14 C62.887,81.236 58.562,77.685 58.562,77.685" id="Fill-246" fill="#5E7938"></path>
            <path d="M19.042,61.42 C19.042,61.42 13.543,60.379 14.755,63.238 C15.966,66.096 19.042,61.42 19.042,61.42" id="Fill-247" fill="#5E7938"></path>
            <path d="M75.901,33.487 C75.901,33.487 81.4,34.528 80.189,31.669 C78.977,28.811 75.901,33.487 75.901,33.487" id="Fill-248" fill="#5E7938"></path>
            <path d="M61,19.208 C61,19.208 65.931,16.561 63.192,15.099 C60.453,13.638 61,19.208 61,19.208" id="Fill-249" fill="#5E7938"></path>
            <path d="M34.34,76.675 C34.34,76.675 29.409,79.322 32.148,80.783 C34.887,82.245 34.34,76.675 34.34,76.675" id="Fill-250" fill="#5E7938"></path>
            <path d="M76.892,59.677 C76.892,59.677 79.725,64.503 81.081,61.71 C82.436,58.917 76.892,59.677 76.892,59.677" id="Fill-251" fill="#5E7938"></path>
            <path d="M18.448,35.23 C18.448,35.23 15.615,30.404 14.259,33.197 C12.904,35.99 18.448,35.23 18.448,35.23" id="Fill-252" fill="#5E7938"></path>
        </g>
    </g>
</svg>