<?xml version="1.0" encoding="UTF-8"?>
<svg width="118px" height="98px" viewBox="0 0 118 98" version="1.1" xmlns="http://www.w3.org/2000/svg" xmlns:xlink="http://www.w3.org/1999/xlink">
    <!-- Generator: Sketch 41.2 (35397) - http://www.bohemiancoding.com/sketch -->
    <title>Watermelon</title>
    <desc>Created with Sketch.</desc>
    <defs></defs>
    <g id="Page-1" stroke="none" stroke-width="1" fill="none" fill-rule="evenodd">
        <g id="Watermelon" transform="translate(2.000000, 2.000000)">
            <path d="M0.614,55.123 C1.32,57.252 2.786,60.259 4.13,62.751 C19.479,91.229 55.048,101.875 83.526,86.526 C112.004,71.177 122.647,35.611 107.298,7.133 C105.954,4.64 104.208,1.797 102.818,0.036" id="Fill-94" fill="#00A548"></path>
            <path d="M0.614,55.123 C1.32,57.252 2.786,60.259 4.13,62.751 C19.479,91.229 55.048,101.875 83.526,86.526 C112.004,71.177 122.647,35.611 107.298,7.133 C105.954,4.64 104.208,1.797 102.818,0.036" id="Stroke-95" stroke="#008643" stroke-width="3.357" stroke-linecap="round"></path>
            <path d="M5.615,52.427 C6.003,53.891 7.288,56.86 8.507,59.122 C22.438,84.968 54.57,94.516 80.416,80.585 C106.262,66.655 116.009,34.621 102.078,8.775 C100.859,6.513 99.109,3.708 98.1,2.579" id="Fill-96" fill="#E15A46"></path>
            <path d="M5.615,52.427 C6.003,53.891 7.288,56.86 8.507,59.122 C22.438,84.968 54.57,94.516 80.416,80.585 C106.262,66.655 116.009,34.621 102.078,8.775 C100.859,6.513 99.109,3.708 98.1,2.579" id="Stroke-97" stroke="#E67959" stroke-width="3.357" stroke-linecap="round" stroke-linejoin="round"></path>
            <path d="M37.773,40.135 C37.773,40.135 36.91,48.163 40.881,46.091 C44.852,44.019 37.773,40.135 37.773,40.135" id="Fill-99" fill="#904A49"></path>
            <path d="M55.928,30.35 C55.928,30.35 55.065,38.378 59.036,36.306 C63.007,34.234 55.928,30.35 55.928,30.35" id="Fill-100" fill="#904A49"></path>
            <path d="M74.083,20.565 C74.083,20.565 73.219,28.593 77.19,26.521 C81.161,24.449 74.083,20.565 74.083,20.565" id="Fill-101" fill="#904A49"></path>
            <path d="M72.579,43.13 C72.579,43.13 71.715,51.159 75.686,49.087 C79.657,47.015 72.579,43.13 72.579,43.13" id="Fill-104" fill="#904A49"></path>
            <path d="M52.911,53.731 C52.911,53.731 52.048,61.759 56.019,59.687 C59.99,57.616 52.911,53.731 52.911,53.731" id="Fill-105" fill="#904A49"></path>
            <path d="M33.156,64.169 C33.156,64.169 32.293,72.198 36.264,70.126 C40.235,68.054 33.156,64.169 33.156,64.169" id="Fill-106" fill="#904A49"></path>
            <path d="M72.969,63.002 C72.969,63.002 72.106,71.03 76.077,68.958 C80.048,66.886 72.969,63.002 72.969,63.002" id="Fill-108" fill="#904A49"></path>
            <path d="M53.214,73.44 C53.214,73.44 52.351,81.468 56.322,79.397 C60.293,77.325 53.214,73.44 53.214,73.44" id="Fill-109" fill="#904A49"></path>
        </g>
    </g>
</svg>